<svg id="Calque_1" data-name="Calque 1" xmlns="http://www.w3.org/2000/svg" viewBox="0 0 595.28 841.89"><defs><style>.cls-1{fill:#dadada;}.cls-2{fill:#36a9e1;}</style></defs><title>logo MM</title><polygon class="cls-1" points="24.58 223.44 300.83 67.76 367.06 108.33 367.06 212.11 406.69 339.48 443.48 242.31 495.37 274.38 495.37 497.04 439.71 526.29 439.71 364.96 408.57 446.1 369.89 360.24 368.95 563.09 315.17 597.05 314.23 145.13 313.28 133.81 300.83 131.92 79.3 255.51 76.47 510.25 202.9 583.84 204.78 648 24.58 547.05 24.58 223.44"/><polygon class="cls-2" points="398.19 187.58 398.19 125.31 575.57 227.21 575.57 547.99 300.83 707.44 233.09 666.87 233.09 362.13 195.35 446.1 162.33 366.84 162.33 527.23 103.83 495.16 103.83 274.38 159.5 241.36 191.57 332.88 226.48 203.62 284.04 169.66 286.87 636.68 300.83 644.23 523.68 515.91 522.73 257.4 398.19 187.58"/></svg>